{
  "accessors": [
    {
      "bufferView": 2,
      "componentType": 5126,
      "count": 6269,
      "max": [
        8.372064590454102,
        -3.399656295776367,
        18.188457489013672
      ],
      "min": [
        -8.410975456237793,
        -11.162395477294922,
        0.0957040786743164
      ],
      "type": "VEC3"
    },
    {
      "bufferView": 2,
      "byteOffset": 75228,
      "componentType": 5126,
      "count": 6269,
      "max": [
        0.9984647035598755,
        0.9997531175613403,
        0.9962495565414429
      ],
      "min": [
        -0.9975532293319702,
        -0.9988080263137817,
        -0.9994692802429199
      ],
      "type": "VEC3"
    },
    {
      "bufferView": 1,
      "componentType": 5126,
      "count": 6269,
      "max": [
        0.9999998211860657,
        1.0
      ],
      "min": [
        2.9802322387695313e-08,
        5.960464477539063e-08
      ],
      "type": "VEC2"
    },
    {
      "bufferView": 0,
      "componentType": 5125,
      "count": 17304,
      "type": "SCALAR"
    },
    {
      "bufferView": 2,
      "byteOffset": 150456,
      "componentType": 5126,
      "count": 2822,
      "max": [
        21.439590454101563,
        6.116506099700928,
        17.911128997802734
      ],
      "min": [
        -21.92051124572754,
        -3.6759538650512695,
        8.60503101348877
      ],
      "type": "VEC3"
    },
    {
      "bufferView": 2,
      "byteOffset": 184320,
      "componentType": 5126,
      "count": 2822,
      "max": [
        0.9997851848602295,
        0.9998345375061035,
        0.9522343873977661
      ],
      "min": [
        -0.9997859001159668,
        -0.9998559951782227,
        -0.9890336990356445
      ],
      "type": "VEC3"
    },
    {
      "bufferView": 1,
      "byteOffset": 50152,
      "componentType": 5126,
      "count": 2822,
      "max": [
        0.9838820695877075,
        1.0
      ],
      "min": [
        -2.9802322387695313e-08,
        0.019686222076416016
      ],
      "type": "VEC2"
    },
    {
      "bufferView": 1,
      "byteOffset": 72728,
      "componentType": 5126,
      "count": 2822,
      "max": [
        0.9838820695877075,
        1.0
      ],
      "min": [
        -2.9802322387695313e-08,
        0.019686222076416016
      ],
      "type": "VEC2"
    },
    {
      "bufferView": 0,
      "byteOffset": 69216,
      "componentType": 5125,
      "count": 12672,
      "type": "SCALAR"
    },
    {
      "bufferView": 2,
      "byteOffset": 218184,
      "componentType": 5126,
      "count": 65532,
      "max": [
        6.066709995269775,
        8.839374542236328,
        17.61174964904785
      ],
      "min": [
        -13.144564628601074,
        -11.164743423461914,
        0.3128540515899658
      ],
      "type": "VEC3"
    },
    {
      "bufferView": 2,
      "byteOffset": 1004568,
      "componentType": 5126,
      "count": 65532,
      "max": [
        0.9999967813491821,
        0.9999761581420898,
        0.9999995231628418
      ],
      "min": [
        -0.9999990463256836,
        -0.9999474287033081,
        -1.0
      ],
      "type": "VEC3"
    },
    {
      "bufferView": 1,
      "byteOffset": 95304,
      "componentType": 5126,
      "count": 65532,
      "max": [
        0.9510926008224487,
        0.9733682870864868
      ],
      "min": [
        0.02095433510839939,
        0.013000493869185448
      ],
      "type": "VEC2"
    },
    {
      "bufferView": 1,
      "byteOffset": 619560,
      "componentType": 5126,
      "count": 65532,
      "max": [
        0.9510926008224487,
        0.9733682870864868
      ],
      "min": [
        0.02095433510839939,
        0.013000493869185448
      ],
      "type": "VEC2"
    },
    {
      "bufferView": 0,
      "byteOffset": 119904,
      "componentType": 5125,
      "count": 358926,
      "type": "SCALAR"
    },
    {
      "bufferView": 2,
      "byteOffset": 1790952,
      "componentType": 5126,
      "count": 15299,
      "max": [
        0.32765814661979675,
        8.335159301757813,
        17.30220603942871
      ],
      "min": [
        -13.112810134887695,
        -10.938935279846191,
        -0.12057946622371674
      ],
      "type": "VEC3"
    },
    {
      "bufferView": 2,
      "byteOffset": 1974540,
      "componentType": 5126,
      "count": 15299,
      "max": [
        0.999842643737793,
        1.0,
        1.0
      ],
      "min": [
        -0.999472975730896,
        -0.9999911785125732,
        -0.9999840259552002
      ],
      "type": "VEC3"
    },
    {
      "bufferView": 1,
      "byteOffset": 1143816,
      "componentType": 5126,
      "count": 15299,
      "max": [
        0.9425537586212158,
        0.9828742742538452
      ],
      "min": [
        0.03887670487165451,
        0.024017808958888054
      ],
      "type": "VEC2"
    },
    {
      "bufferView": 1,
      "byteOffset": 1266208,
      "componentType": 5126,
      "count": 15299,
      "max": [
        0.9425537586212158,
        0.9828742742538452
      ],
      "min": [
        0.03887670487165451,
        0.024017808958888054
      ],
      "type": "VEC2"
    },
    {
      "bufferView": 0,
      "byteOffset": 1555608,
      "componentType": 5125,
      "count": 80370,
      "type": "SCALAR"
    },
    {
      "bufferView": 2,
      "byteOffset": 2158128,
      "componentType": 5126,
      "count": 594,
      "max": [
        21.390865325927734,
        6.043272018432617,
        15.77250862121582
      ],
      "min": [
        -21.382509231567383,
        -4.138735771179199,
        8.679069519042969
      ],
      "type": "VEC3"
    },
    {
      "bufferView": 2,
      "byteOffset": 2165256,
      "componentType": 5126,
      "count": 594,
      "max": [
        0.655397355556488,
        0.9269763231277466,
        0.9510405659675598
      ],
      "min": [
        -0.7508292198181152,
        0.015595294535160065,
        0.344709187746048
      ],
      "type": "VEC3"
    },
    {
      "bufferView": 1,
      "byteOffset": 1388600,
      "componentType": 5126,
      "count": 594,
      "max": [
        0.9921126365661621,
        0.9637506604194641
      ],
      "min": [
        0.0025392770767211914,
        0.03927283734083176
      ],
      "type": "VEC2"
    },
    {
      "bufferView": 0,
      "byteOffset": 1877088,
      "componentType": 5125,
      "count": 3072,
      "type": "SCALAR"
    },
    {
      "bufferView": 2,
      "byteOffset": 2172384,
      "componentType": 5126,
      "count": 1634,
      "max": [
        -2.905003070831299,
        -8.970930099487305,
        16.484844207763672
      ],
      "min": [
        -4.09031867980957,
        -10.1871919631958,
        16.03342056274414
      ],
      "type": "VEC3"
    },
    {
      "bufferView": 2,
      "byteOffset": 2191992,
      "componentType": 5126,
      "count": 1634,
      "max": [
        0.9989259839057922,
        0.9996880292892456,
        0.9973113536834717
      ],
      "min": [
        -0.9985999464988708,
        -0.9995440244674683,
        -0.9973098039627075
      ],
      "type": "VEC3"
    },
    {
      "bufferView": 1,
      "byteOffset": 1393352,
      "componentType": 5126,
      "count": 1634,
      "max": [
        1.0,
        1.0
      ],
      "min": [
        0.0,
        0.0
      ],
      "type": "VEC2"
    },
    {
      "bufferView": 0,
      "byteOffset": 1889376,
      "componentType": 5125,
      "count": 7296,
      "type": "SCALAR"
    }
  ],
  "asset": {
    "extras": {
      "author": "João Lacerda (https://sketchfab.com/panc0)",
      "license": "CC-BY-4.0 (http://creativecommons.org/licenses/by/4.0/)",
      "source": "https://sketchfab.com/3d-models/charizard-fanart-14e0da751cd14fa79ed36e2456435f0b",
      "title": "Charizard Fanart"
    },
    "generator": "Sketchfab-12.68.0",
    "version": "2.0"
  },
  "bufferViews": [
    {
      "buffer": 0,
      "byteLength": 1918560,
      "name": "floatBufferViews",
      "target": 34963
    },
    {
      "buffer": 0,
      "byteLength": 1406424,
      "byteOffset": 1918560,
      "byteStride": 8,
      "name": "floatBufferViews",
      "target": 34962
    },
    {
      "buffer": 0,
      "byteLength": 2211600,
      "byteOffset": 3324984,
      "byteStride": 12,
      "name": "floatBufferViews",
      "target": 34962
    }
  ],
  "buffers": [
    {
      "byteLength": 5536584,
      "uri": "scene.bin"
    }
  ],
  "images": [
    {
      "uri": "textures/Teeth_Claws_baseColor.png"
    },
    {
      "uri": "textures/Teeth_Claws_metallicRoughness.png"
    },
    {
      "uri": "textures/Wings_Arm_baseColor.png"
    },
    {
      "uri": "textures/Wings_Arm_metallicRoughness.png"
    },
    {
      "uri": "textures/Skin.001_baseColor.png"
    },
    {
      "uri": "textures/Skin.001_metallicRoughness.png"
    },
    {
      "uri": "textures/Wings_baseColor.png"
    },
    {
      "uri": "textures/Wings_metallicRoughness.png"
    },
    {
      "uri": "textures/Eyes_baseColor.png"
    },
    {
      "uri": "textures/Eyes_metallicRoughness.png"
    }
  ],
  "materials": [
    {
      "doubleSided": true,
      "name": "Teeth_Claws",
      "pbrMetallicRoughness": {
        "baseColorFactor": [
          0.4,
          0.4,
          0.4,
          1.0
        ],
        "baseColorTexture": {
          "index": 0
        },
        "metallicFactor": 0.26,
        "metallicRoughnessTexture": {
          "index": 1
        },
        "roughnessFactor": 0.47
      }
    },
    {
      "doubleSided": true,
      "name": "Wings_Arm",
      "pbrMetallicRoughness": {
        "baseColorTexture": {
          "index": 2
        },
        "metallicFactor": 0.0,
        "metallicRoughnessTexture": {
          "index": 3
        },
        "roughnessFactor": 0.5897210786
      }
    },
    {
      "doubleSided": true,
      "name": "Skin.001",
      "pbrMetallicRoughness": {
        "baseColorTexture": {
          "index": 4
        },
        "metallicFactor": 0.0,
        "metallicRoughnessTexture": {
          "index": 5
        }
      }
    },
    {
      "doubleSided": true,
      "name": "Wings",
      "pbrMetallicRoughness": {
        "baseColorTexture": {
          "index": 6
        },
        "metallicFactor": 0.0,
        "metallicRoughnessTexture": {
          "index": 7
        }
      }
    },
    {
      "doubleSided": true,
      "name": "Eyes",
      "pbrMetallicRoughness": {
        "baseColorTexture": {
          "index": 8
        },
        "metallicRoughnessTexture": {
          "index": 9
        }
      }
    }
  ],
  "meshes": [
    {
      "name": "Cube_Teeth_Claws_0",
      "primitives": [
        {
          "attributes": {
            "NORMAL": 1,
            "POSITION": 0,
            "TEXCOORD_0": 2
          },
          "indices": 3,
          "material": 0,
          "mode": 4
        }
      ]
    },
    {
      "name": "Cube_Wings_Arm_0",
      "primitives": [
        {
          "attributes": {
            "NORMAL": 5,
            "POSITION": 4,
            "TEXCOORD_0": 6,
            "TEXCOORD_1": 7
          },
          "indices": 8,
          "material": 1,
          "mode": 4
        }
      ]
    },
    {
      "name": "Cube_Skin.001_0",
      "primitives": [
        {
          "attributes": {
            "NORMAL": 10,
            "POSITION": 9,
            "TEXCOORD_0": 11,
            "TEXCOORD_1": 12
          },
          "indices": 13,
          "material": 2,
          "mode": 4
        }
      ]
    },
    {
      "name": "Cube_Skin.001_0",
      "primitives": [
        {
          "attributes": {
            "NORMAL": 15,
            "POSITION": 14,
            "TEXCOORD_0": 16,
            "TEXCOORD_1": 17
          },
          "indices": 18,
          "material": 2,
          "mode": 4
        }
      ]
    },
    {
      "name": "Cube_Wings_0",
      "primitives": [
        {
          "attributes": {
            "NORMAL": 20,
            "POSITION": 19,
            "TEXCOORD_0": 21
          },
          "indices": 22,
          "material": 3,
          "mode": 4
        }
      ]
    },
    {
      "name": "Cube_Eyes_0",
      "primitives": [
        {
          "attributes": {
            "NORMAL": 24,
            "POSITION": 23,
            "TEXCOORD_0": 25
          },
          "indices": 26,
          "material": 4,
          "mode": 4
        }
      ]
    }
  ],
  "nodes": [
    {
      "children": [
        1
      ],
      "matrix": [
        0.0015151174739003181,
        0.0,
        0.0,
        0.0,
        0.0,
        3.364236609072076e-19,
        -0.0015151174739003181,
        0.0,
        0.0,
        0.0015151174739003181,
        3.364236609072076e-19,
        0.0,
        0.0,
        0.0,
        0.0,
        1.0
      ],
      "name": "Sketchfab_model"
    },
    {
      "children": [
        2
      ],
      "matrix": [
        1.0,
        0.0,
        0.0,
        0.0,
        0.0,
        0.0,
        1.0,
        0.0,
        0.0,
        -1.0,
        0.0,
        0.0,
        0.0,
        0.0,
        0.0,
        1.0
      ],
      "name": "Charizard_Texture_Extraction3.fbx"
    },
    {
      "children": [
        3
      ],
      "name": "RootNode"
    },
    {
      "children": [
        4,
        5,
        6,
        7,
        8,
        9
      ],
      "matrix": [
        100.0,
        0.0,
        0.0,
        0.0,
        0.0,
        -1.629206793918314e-05,
        -99.99999999999868,
        0.0,
        0.0,
        99.99999999999868,
        -1.629206793918314e-05,
        0.0,
        0.0,
        0.0,
        0.0,
        1.0
      ],
      "name": "Cube"
    },
    {
      "mesh": 0,
      "name": "Cube_Teeth_Claws_0"
    },
    {
      "mesh": 1,
      "name": "Cube_Wings_Arm_0"
    },
    {
      "mesh": 2,
      "name": "Cube_Skin.001_0"
    },
    {
      "mesh": 3,
      "name": "Cube_Skin.001_0"
    },
    {
      "mesh": 4,
      "name": "Cube_Wings_0"
    },
    {
      "mesh": 5,
      "name": "Cube_Eyes_0"
    }
  ],
  "samplers": [
    {
      "magFilter": 9729,
      "minFilter": 9987,
      "wrapS": 10497,
      "wrapT": 10497
    }
  ],
  "scene": 0,
  "scenes": [
    {
      "name": "Sketchfab_Scene",
      "nodes": [
        0
      ]
    }
  ],
  "textures": [
    {
      "sampler": 0,
      "source": 0
    },
    {
      "sampler": 0,
      "source": 1
    },
    {
      "sampler": 0,
      "source": 2
    },
    {
      "sampler": 0,
      "source": 3
    },
    {
      "sampler": 0,
      "source": 4
    },
    {
      "sampler": 0,
      "source": 5
    },
    {
      "sampler": 0,
      "source": 6
    },
    {
      "sampler": 0,
      "source": 7
    },
    {
      "sampler": 0,
      "source": 8
    },
    {
      "sampler": 0,
      "source": 9
    }
  ]
}
